<svg xmlns="http://www.w3.org/2000/svg" xmlns:xlink="http://www.w3.org/1999/xlink" width="1080" zoomAndPan="magnify" viewBox="0 0 810 809.999993" height="1080" preserveAspectRatio="xMidYMid meet" version="1.0"><defs><g/><clipPath id="6776907119"><path d="M 485 252 L 656 252 L 656 311 L 485 311 Z M 485 252 " clip-rule="nonzero"/></clipPath><clipPath id="a72df682bf"><path d="M 481.738281 266.53125 L 652.695312 238.757812 L 663.480469 305.148438 L 492.523438 332.925781 Z M 481.738281 266.53125 " clip-rule="nonzero"/></clipPath><clipPath id="0c8b46b2f7"><path d="M 481.738281 266.53125 L 652.695312 238.757812 L 663.480469 305.148438 L 492.523438 332.925781 Z M 481.738281 266.53125 " clip-rule="nonzero"/></clipPath></defs><rect x="-81" width="972" fill="#ffffff" y="-80.999999" height="971.999992" fill-opacity="1"/><rect x="-81" width="972" fill="#ffffff" y="-80.999999" height="971.999992" fill-opacity="1"/><g fill="#38b6ff" fill-opacity="1"><g transform="translate(19.084746, 418.054385)"><g><path d="M 63.828125 1.703125 C 52.085938 1.703125 42.039062 -0.613281 33.6875 -5.25 C 25.34375 -9.882812 18.929688 -16.398438 14.453125 -24.796875 C 9.972656 -33.203125 7.734375 -43.125 7.734375 -54.5625 C 7.734375 -63.113281 8.992188 -70.816406 11.515625 -77.671875 C 14.035156 -84.523438 17.71875 -90.394531 22.5625 -95.28125 C 27.40625 -100.175781 33.304688 -103.960938 40.265625 -106.640625 C 47.222656 -109.328125 55.078125 -110.671875 63.828125 -110.671875 C 68.984375 -110.671875 74.210938 -110.023438 79.515625 -108.734375 C 84.828125 -107.441406 89.441406 -105.613281 93.359375 -103.25 C 95.929688 -101.800781 97.679688 -99.992188 98.609375 -97.828125 C 99.535156 -95.671875 99.816406 -93.507812 99.453125 -91.34375 C 99.097656 -89.175781 98.222656 -87.320312 96.828125 -85.78125 C 95.441406 -84.238281 93.71875 -83.257812 91.65625 -82.84375 C 89.59375 -82.4375 87.273438 -82.898438 84.703125 -84.234375 C 81.609375 -86.085938 78.359375 -87.425781 74.953125 -88.25 C 71.554688 -89.070312 68.109375 -89.484375 64.609375 -89.484375 C 57.703125 -89.484375 51.90625 -88.117188 47.21875 -85.390625 C 42.53125 -82.660156 39 -78.71875 36.625 -73.5625 C 34.257812 -68.414062 33.078125 -62.082031 33.078125 -54.5625 C 33.078125 -47.144531 34.257812 -40.804688 36.625 -35.546875 C 39 -30.296875 42.53125 -26.300781 47.21875 -23.5625 C 51.90625 -20.832031 57.703125 -19.46875 64.609375 -19.46875 C 67.898438 -19.46875 71.269531 -19.878906 74.71875 -20.703125 C 78.175781 -21.535156 81.503906 -22.828125 84.703125 -24.578125 C 87.378906 -25.910156 89.773438 -26.394531 91.890625 -26.03125 C 94.003906 -25.675781 95.753906 -24.75 97.140625 -23.25 C 98.535156 -21.757812 99.410156 -19.984375 99.765625 -17.921875 C 100.128906 -15.867188 99.898438 -13.8125 99.078125 -11.75 C 98.253906 -9.6875 96.707031 -7.929688 94.4375 -6.484375 C 90.625 -3.910156 85.9375 -1.898438 80.375 -0.453125 C 74.8125 0.984375 69.296875 1.703125 63.828125 1.703125 Z M 63.828125 1.703125 "/></g></g></g><g fill="#38b6ff" fill-opacity="1"><g transform="translate(121.711939, 418.054385)"><g><path d="M 23.03125 1.390625 C 19.113281 1.390625 16.125 0.3125 14.0625 -1.84375 C 12 -4.007812 10.96875 -7.050781 10.96875 -10.96875 L 10.96875 -98 C 10.96875 -101.90625 12 -104.941406 14.0625 -107.109375 C 16.125 -109.273438 19.113281 -110.359375 23.03125 -110.359375 C 26.84375 -110.359375 29.78125 -109.273438 31.84375 -107.109375 C 33.90625 -104.941406 34.9375 -101.90625 34.9375 -98 L 34.9375 -65.21875 L 85.625 -65.21875 L 85.625 -98 C 85.625 -101.90625 86.65625 -104.941406 88.71875 -107.109375 C 90.78125 -109.273438 93.71875 -110.359375 97.53125 -110.359375 C 101.445312 -110.359375 104.429688 -109.273438 106.484375 -107.109375 C 108.546875 -104.941406 109.578125 -101.90625 109.578125 -98 L 109.578125 -10.96875 C 109.578125 -7.050781 108.546875 -4.007812 106.484375 -1.84375 C 104.429688 0.3125 101.445312 1.390625 97.53125 1.390625 C 93.71875 1.390625 90.78125 0.3125 88.71875 -1.84375 C 86.65625 -4.007812 85.625 -7.050781 85.625 -10.96875 L 85.625 -45.28125 L 34.9375 -45.28125 L 34.9375 -10.96875 C 34.9375 -7.050781 33.929688 -4.007812 31.921875 -1.84375 C 29.910156 0.3125 26.945312 1.390625 23.03125 1.390625 Z M 23.03125 1.390625 "/></g></g></g><g fill="#38b6ff" fill-opacity="1"><g transform="translate(239.176776, 418.054385)"><g><path d="M 14.0625 1.390625 C 11.175781 1.390625 8.832031 0.722656 7.03125 -0.609375 C 5.226562 -1.953125 4.09375 -3.753906 3.625 -6.015625 C 3.164062 -8.285156 3.609375 -10.8125 4.953125 -13.59375 L 44.515625 -100.3125 C 46.160156 -103.8125 48.113281 -106.359375 50.375 -107.953125 C 52.644531 -109.554688 55.273438 -110.359375 58.265625 -110.359375 C 61.253906 -110.359375 63.878906 -109.554688 66.140625 -107.953125 C 68.410156 -106.359375 70.320312 -103.8125 71.875 -100.3125 L 111.75 -13.59375 C 113.09375 -10.8125 113.582031 -8.257812 113.21875 -5.9375 C 112.851562 -3.625 111.796875 -1.820312 110.046875 -0.53125 C 108.296875 0.75 106.03125 1.390625 103.25 1.390625 C 99.75 1.390625 97.046875 0.566406 95.140625 -1.078125 C 93.234375 -2.734375 91.554688 -5.3125 90.109375 -8.8125 L 80.84375 -30.296875 L 90.421875 -23.640625 L 25.96875 -23.640625 L 35.546875 -30.296875 L 26.4375 -8.8125 C 24.882812 -5.207031 23.257812 -2.601562 21.5625 -1 C 19.863281 0.59375 17.363281 1.390625 14.0625 1.390625 Z M 57.953125 -83.46875 L 38.171875 -36.328125 L 34 -42.34375 L 82.375 -42.34375 L 78.203125 -36.328125 L 58.265625 -83.46875 Z M 58.265625 -117.46875 C 51.253906 -117.46875 45.222656 -119.191406 40.171875 -122.640625 C 35.128906 -126.097656 31.734375 -130.914062 29.984375 -137.09375 C 29.265625 -139.46875 29.46875 -141.425781 30.59375 -142.96875 C 31.726562 -144.507812 33.171875 -145.382812 34.921875 -145.59375 C 36.671875 -145.800781 38.085938 -145.617188 39.171875 -145.046875 C 40.253906 -144.484375 41.101562 -143.765625 41.71875 -142.890625 C 42.34375 -142.015625 42.859375 -141.164062 43.265625 -140.34375 C 44.398438 -137.039062 46.359375 -134.644531 49.140625 -133.15625 C 51.921875 -131.664062 54.960938 -130.921875 58.265625 -130.921875 C 61.566406 -130.921875 64.609375 -131.664062 67.390625 -133.15625 C 70.171875 -134.644531 72.128906 -137.039062 73.265625 -140.34375 C 73.671875 -141.164062 74.179688 -142.015625 74.796875 -142.890625 C 75.421875 -143.765625 76.273438 -144.484375 77.359375 -145.046875 C 78.441406 -145.617188 79.859375 -145.800781 81.609375 -145.59375 C 83.359375 -145.382812 84.796875 -144.507812 85.921875 -142.96875 C 87.054688 -141.425781 87.265625 -139.46875 86.546875 -137.09375 C 84.898438 -130.914062 81.523438 -126.097656 76.421875 -122.640625 C 71.328125 -119.191406 65.273438 -117.46875 58.265625 -117.46875 Z M 58.265625 -117.46875 "/></g></g></g><g fill="#38b6ff" fill-opacity="1"><g transform="translate(352.468528, 418.054385)"><g><path d="M 22.109375 1.390625 C 18.597656 1.390625 15.914062 0.410156 14.0625 -1.546875 C 12.207031 -3.503906 11.28125 -6.234375 11.28125 -9.734375 L 11.28125 -99.234375 C 11.28125 -102.734375 12.285156 -105.460938 14.296875 -107.421875 C 16.304688 -109.378906 19.0625 -110.359375 22.5625 -110.359375 C 25.65625 -110.359375 28.101562 -109.765625 29.90625 -108.578125 C 31.707031 -107.390625 33.382812 -105.351562 34.9375 -102.46875 L 70.640625 -37.25 L 65.375 -37.25 L 101.078125 -102.46875 C 102.628906 -105.351562 104.304688 -107.390625 106.109375 -108.578125 C 107.910156 -109.765625 110.304688 -110.359375 113.296875 -110.359375 C 116.796875 -110.359375 119.5 -109.378906 121.40625 -107.421875 C 123.3125 -105.460938 124.265625 -102.734375 124.265625 -99.234375 L 124.265625 -9.734375 C 124.265625 -6.234375 123.335938 -3.503906 121.484375 -1.546875 C 119.628906 0.410156 116.953125 1.390625 113.453125 1.390625 C 109.941406 1.390625 107.234375 0.410156 105.328125 -1.546875 C 103.421875 -3.503906 102.46875 -6.234375 102.46875 -9.734375 L 102.46875 -72.328125 L 105.875 -72.328125 L 77.125 -20.859375 C 75.882812 -18.898438 74.566406 -17.429688 73.171875 -16.453125 C 71.785156 -15.484375 69.960938 -15 67.703125 -15 C 65.429688 -15 63.570312 -15.507812 62.125 -16.53125 C 60.6875 -17.5625 59.398438 -19.003906 58.265625 -20.859375 L 29.21875 -72.484375 L 32.921875 -72.484375 L 32.921875 -9.734375 C 32.921875 -6.234375 32.019531 -3.503906 30.21875 -1.546875 C 28.414062 0.410156 25.710938 1.390625 22.109375 1.390625 Z M 22.109375 1.390625 "/></g></g></g><g fill="#38b6ff" fill-opacity="1"><g transform="translate(484.771061, 418.054385)"><g/></g></g><g fill="#38b6ff" fill-opacity="1"><g transform="translate(524.80184, 418.054385)"><g><path d="M 63.828125 1.703125 C 52.085938 1.703125 42.039062 -0.613281 33.6875 -5.25 C 25.34375 -9.882812 18.929688 -16.398438 14.453125 -24.796875 C 9.972656 -33.203125 7.734375 -43.125 7.734375 -54.5625 C 7.734375 -63.113281 8.992188 -70.816406 11.515625 -77.671875 C 14.035156 -84.523438 17.71875 -90.394531 22.5625 -95.28125 C 27.40625 -100.175781 33.304688 -103.960938 40.265625 -106.640625 C 47.222656 -109.328125 55.078125 -110.671875 63.828125 -110.671875 C 68.984375 -110.671875 74.210938 -110.023438 79.515625 -108.734375 C 84.828125 -107.441406 89.441406 -105.613281 93.359375 -103.25 C 95.929688 -101.800781 97.679688 -99.992188 98.609375 -97.828125 C 99.535156 -95.671875 99.816406 -93.507812 99.453125 -91.34375 C 99.097656 -89.175781 98.222656 -87.320312 96.828125 -85.78125 C 95.441406 -84.238281 93.71875 -83.257812 91.65625 -82.84375 C 89.59375 -82.4375 87.273438 -82.898438 84.703125 -84.234375 C 81.609375 -86.085938 78.359375 -87.425781 74.953125 -88.25 C 71.554688 -89.070312 68.109375 -89.484375 64.609375 -89.484375 C 57.703125 -89.484375 51.90625 -88.117188 47.21875 -85.390625 C 42.53125 -82.660156 39 -78.71875 36.625 -73.5625 C 34.257812 -68.414062 33.078125 -62.082031 33.078125 -54.5625 C 33.078125 -47.144531 34.257812 -40.804688 36.625 -35.546875 C 39 -30.296875 42.53125 -26.300781 47.21875 -23.5625 C 51.90625 -20.832031 57.703125 -19.46875 64.609375 -19.46875 C 67.898438 -19.46875 71.269531 -19.878906 74.71875 -20.703125 C 78.175781 -21.535156 81.503906 -22.828125 84.703125 -24.578125 C 87.378906 -25.910156 89.773438 -26.394531 91.890625 -26.03125 C 94.003906 -25.675781 95.753906 -24.75 97.140625 -23.25 C 98.535156 -21.757812 99.410156 -19.984375 99.765625 -17.921875 C 100.128906 -15.867188 99.898438 -13.8125 99.078125 -11.75 C 98.253906 -9.6875 96.707031 -7.929688 94.4375 -6.484375 C 90.625 -3.910156 85.9375 -1.898438 80.375 -0.453125 C 74.8125 0.984375 69.296875 1.703125 63.828125 1.703125 Z M 63.828125 1.703125 "/></g></g></g><g fill="#38b6ff" fill-opacity="1"><g transform="translate(627.429045, 418.054385)"><g><path d="M 23.03125 1.390625 C 19.113281 1.390625 16.125 0.3125 14.0625 -1.84375 C 12 -4.007812 10.96875 -7.050781 10.96875 -10.96875 L 10.96875 -98 C 10.96875 -101.90625 12 -104.941406 14.0625 -107.109375 C 16.125 -109.273438 19.113281 -110.359375 23.03125 -110.359375 C 26.84375 -110.359375 29.78125 -109.273438 31.84375 -107.109375 C 33.90625 -104.941406 34.9375 -101.90625 34.9375 -98 L 34.9375 -65.21875 L 85.625 -65.21875 L 85.625 -98 C 85.625 -101.90625 86.65625 -104.941406 88.71875 -107.109375 C 90.78125 -109.273438 93.71875 -110.359375 97.53125 -110.359375 C 101.445312 -110.359375 104.429688 -109.273438 106.484375 -107.109375 C 108.546875 -104.941406 109.578125 -101.90625 109.578125 -98 L 109.578125 -10.96875 C 109.578125 -7.050781 108.546875 -4.007812 106.484375 -1.84375 C 104.429688 0.3125 101.445312 1.390625 97.53125 1.390625 C 93.71875 1.390625 90.78125 0.3125 88.71875 -1.84375 C 86.65625 -4.007812 85.625 -7.050781 85.625 -10.96875 L 85.625 -45.28125 L 34.9375 -45.28125 L 34.9375 -10.96875 C 34.9375 -7.050781 33.929688 -4.007812 31.921875 -1.84375 C 29.910156 0.3125 26.945312 1.390625 23.03125 1.390625 Z M 23.03125 1.390625 "/></g></g></g><g fill="#38b6ff" fill-opacity="1"><g transform="translate(744.893848, 418.054385)"><g><path d="M 23.03125 1.390625 C 19.113281 1.390625 16.125 0.3125 14.0625 -1.84375 C 12 -4.007812 10.96875 -7.050781 10.96875 -10.96875 L 10.96875 -98 C 10.96875 -101.90625 12 -104.941406 14.0625 -107.109375 C 16.125 -109.273438 19.113281 -110.359375 23.03125 -110.359375 C 26.84375 -110.359375 29.78125 -109.273438 31.84375 -107.109375 C 33.90625 -104.941406 34.9375 -101.90625 34.9375 -98 L 34.9375 -10.96875 C 34.9375 -7.050781 33.929688 -4.007812 31.921875 -1.84375 C 29.910156 0.3125 26.945312 1.390625 23.03125 1.390625 Z M 22.875 -116.84375 C 20.707031 -116.84375 19.03125 -117.203125 17.84375 -117.921875 C 16.664062 -118.648438 16.078125 -119.734375 16.078125 -121.171875 C 16.078125 -122.921875 16.460938 -124.3125 17.234375 -125.34375 C 18.003906 -126.375 18.929688 -127.300781 20.015625 -128.125 C 21.097656 -128.957031 22.050781 -129.757812 22.875 -130.53125 C 23.695312 -131.300781 24.109375 -132.148438 24.109375 -133.078125 C 24.109375 -134.003906 23.617188 -134.695312 22.640625 -135.15625 C 21.660156 -135.625 20.296875 -135.859375 18.546875 -135.859375 C 17.828125 -135.859375 17.03125 -135.804688 16.15625 -135.703125 C 15.28125 -135.597656 14.425781 -135.492188 13.59375 -135.390625 C 11.84375 -134.984375 10.375 -134.957031 9.1875 -135.3125 C 8.007812 -135.675781 7.109375 -136.582031 6.484375 -138.03125 C 5.972656 -139.46875 5.972656 -140.78125 6.484375 -141.96875 C 7.003906 -143.15625 8.191406 -144.054688 10.046875 -144.671875 C 11.898438 -145.285156 14.0625 -145.75 16.53125 -146.0625 C 19.007812 -146.375 21.640625 -146.53125 24.421875 -146.53125 C 29.671875 -146.53125 33.816406 -145.648438 36.859375 -143.890625 C 39.898438 -142.140625 41.421875 -139.722656 41.421875 -136.640625 C 41.421875 -134.265625 40.828125 -132.40625 39.640625 -131.0625 C 38.460938 -129.726562 37.097656 -128.570312 35.546875 -127.59375 C 34.003906 -126.613281 32.664062 -125.582031 31.53125 -124.5 C 30.394531 -123.414062 29.828125 -122 29.828125 -120.25 C 29.828125 -119.21875 29.234375 -118.390625 28.046875 -117.765625 C 26.867188 -117.148438 25.144531 -116.84375 22.875 -116.84375 Z M 22.875 -116.84375 "/></g></g></g><g clip-path="url(#6776907119)"><g clip-path="url(#a72df682bf)"><g clip-path="url(#0c8b46b2f7)"><path fill="#ffde59" d="M 654.113281 259.726562 L 571.125 252.71875 C 568.339844 252.484375 565.550781 252.9375 563.039062 254.03125 L 486.480469 286.960938 C 485.140625 287.519531 485.464844 289.527344 486.914062 289.636719 L 527.714844 293.082031 C 548.839844 282.894531 572.652344 278.683594 596.003906 279.011719 C 572.609375 280.179688 548.734375 286.117188 528.5 297.933594 L 530.324219 309.144531 C 530.476562 310.089844 531.46875 310.558594 532.316406 310.136719 C 544.394531 304.167969 558.636719 299.507812 574.140625 296.988281 C 589.640625 294.46875 604.625 294.382812 618.027344 296.210938 C 618.964844 296.34375 619.703125 295.59375 619.550781 294.648438 L 616.941406 278.585938 L 633.363281 271.511719 L 638.238281 301.511719 L 637.957031 301.558594 C 637.34375 301.660156 636.925781 302.242188 637.023438 302.855469 L 637.921875 308.375 C 638.019531 308.988281 638.605469 309.410156 639.21875 309.308594 L 642.5625 308.765625 C 643.175781 308.667969 643.597656 308.082031 643.496094 307.46875 L 642.601562 301.949219 C 642.5 301.335938 641.917969 300.914062 641.304688 301.015625 L 641.023438 301.058594 L 636.042969 270.390625 L 654.550781 262.402344 C 655.945312 261.832031 655.617188 259.824219 654.113281 259.726562 Z M 654.113281 259.726562 " fill-opacity="1" fill-rule="nonzero"/></g></g></g></svg>